<svg width="55" height="55" viewBox="0 0 55 55" fill="none" xmlns="http://www.w3.org/2000/svg">
<path d="M21.4567 32.9889C19.9264 32.9889 18.6956 31.7581 18.6956 30.2611C18.6956 28.7308 19.9264 27.5 21.4567 27.5C22.9647 27.5 24.1845 28.7308 24.1845 30.2611C24.1845 31.7692 22.9536 32.9889 21.4567 32.9889ZM55 27.5C55 42.6915 42.6915 55 27.5 55C12.3085 55 0 42.6915 0 27.5C0 12.3085 12.3085 0 27.5 0C42.6915 0 55 12.3085 55 27.5ZM40.3296 22.9315C39.2873 22.9315 38.3669 23.3639 37.6905 24.0403C35.2067 22.3216 31.8579 21.2127 28.1431 21.0907L30.0726 12.4083L36.2157 13.7944C36.2157 15.3024 37.4466 16.5222 38.9436 16.5222C40.4738 16.5222 41.7046 15.2692 41.7046 13.7611C41.7046 12.253 40.4738 11 38.9436 11C37.8679 11 36.9476 11.6431 36.4929 12.5302L29.7067 11.0222C29.374 10.9335 29.0302 11.1774 28.9415 11.5101L26.8236 21.0907C23.1421 21.246 19.8266 22.3438 17.3427 24.0625C16.6663 23.3528 15.7127 22.9315 14.6704 22.9315C10.8004 22.9315 9.53629 28.1321 13.0736 29.8952C12.9516 30.4496 12.8851 31.0262 12.8851 31.6139C12.8851 37.4466 19.4496 42.1704 27.5222 42.1704C35.628 42.1704 42.1925 37.4466 42.1925 31.6139C42.1925 31.0262 42.126 30.4163 41.9819 29.8619C45.4526 28.0877 44.1774 22.9315 40.3296 22.9315ZM32.6895 35.8165C30.6714 37.8347 24.251 37.8014 22.3105 35.8165C22.0665 35.5726 21.6341 35.5726 21.3901 35.8165C21.1129 36.0938 21.1129 36.5262 21.3901 36.7702C23.9183 39.2984 31.0706 39.2984 33.6099 36.7702C33.8871 36.5262 33.8871 36.0938 33.6099 35.8165C33.3659 35.5726 32.9335 35.5726 32.6895 35.8165ZM33.5433 27.5C32.0353 27.5 30.8155 28.7308 30.8155 30.2611C30.8155 31.7692 32.0464 32.9889 33.5433 32.9889C35.0736 32.9889 36.3044 31.7581 36.3044 30.2611C36.3044 28.7308 35.0847 27.5 33.5433 27.5Z" fill="#04DDB2"/>
</svg>
