<svg width="56" height="56" viewBox="0 0 56 56" fill="none" xmlns="http://www.w3.org/2000/svg">
<path d="M27.9998 55.9995C43.4636 55.9995 55.9995 43.4636 55.9995 27.9998C55.9995 12.5359 43.4636 0 27.9998 0C12.5359 0 0 12.5359 0 27.9998C0 43.4636 12.5359 55.9995 27.9998 55.9995Z" fill="#04DDB2"/>
<path d="M45.1506 20.1226C43.9507 20.6547 42.66 21.0145 41.3063 21.1753C42.6884 20.3472 43.749 19.037 44.2497 17.4733C42.9564 18.2404 41.5235 18.7969 39.9996 19.0969C38.7788 17.7967 37.0393 16.9841 35.1132 16.9841C31.4177 16.9841 28.4205 19.9814 28.4205 23.6769C28.4205 24.2014 28.4799 24.712 28.5947 25.2022C23.0325 24.9232 18.1007 22.2589 14.7995 18.2085C14.2235 19.1967 13.8931 20.3472 13.8931 21.5736C13.8931 23.895 15.0755 25.9444 16.8703 27.1443C15.7738 27.1098 14.7411 26.8089 13.8392 26.3062C13.8387 26.3347 13.8387 26.3631 13.8387 26.3911C13.8387 29.6339 16.1466 32.3386 19.2077 32.953C18.6467 33.1068 18.0542 33.1881 17.4448 33.1881C17.0126 33.1881 16.5938 33.1467 16.1855 33.0688C17.037 35.7272 19.5082 37.6623 22.4375 37.7167C20.1466 39.512 17.2611 40.5816 14.1247 40.5816C13.5856 40.5816 13.0515 40.5502 12.529 40.4878C15.4893 42.3874 19.0081 43.495 22.7874 43.495C35.0978 43.495 41.8299 33.2969 41.8299 24.452C41.8299 24.162 41.8234 23.873 41.8105 23.5865C43.1192 22.6432 44.2537 21.4648 45.1506 20.1226Z" fill="#F1F2F2"/>
</svg>
