<svg width="156" height="56" viewBox="0 0 156 56" fill="none" xmlns="http://www.w3.org/2000/svg">
<path d="M0.32 55V0.951998H13.376V55H0.32ZM40.6003 55.96C35.9283 55.96 32.0243 55.096 28.8883 53.368C25.7523 51.576 23.4163 49.144 21.8803 46.072C20.3443 43 19.5763 39.512 19.5763 35.608C19.5123 31.64 20.2483 28.152 21.7843 25.144C23.3203 22.072 25.6563 19.64 28.7923 17.848C31.9923 16.056 35.9283 15.16 40.6003 15.16C47.4483 15.16 52.6323 17.048 56.1523 20.824C59.7363 24.536 61.5283 29.464 61.5283 35.608C61.5283 39.448 60.7603 42.904 59.2243 45.976C57.7523 49.048 55.4803 51.48 52.4083 53.272C49.3363 55.064 45.4003 55.96 40.6003 55.96ZM40.6003 44.824C42.9683 44.824 44.7283 44.344 45.8802 43.384C47.0323 42.424 47.7683 41.208 48.0883 39.736C48.4723 38.2 48.6643 36.664 48.6643 35.128C48.6643 33.528 48.4723 31.992 48.0883 30.52C47.7683 29.048 47.0323 27.832 45.8802 26.872C44.7283 25.848 42.9683 25.336 40.6003 25.336C38.2323 25.336 36.4403 25.848 35.2243 26.872C34.0723 27.832 33.3043 29.048 32.9203 30.52C32.6003 31.992 32.4403 33.528 32.4403 35.128C32.4403 36.664 32.6003 38.2 32.9203 39.736C33.3043 41.208 34.0723 42.424 35.2243 43.384C36.4403 44.344 38.2323 44.824 40.6003 44.824ZM94.4855 55.96C92.1815 55.96 90.2295 55.64 88.6295 55C87.0935 54.36 85.8455 53.624 84.8855 52.792C83.9255 51.96 83.2215 51.224 82.7735 50.584C82.3895 49.944 82.1975 49.624 82.1975 49.624H82.0055L79.8935 55H68.1815V0.951998H82.0055V22.552H82.1975C82.1975 22.552 82.3895 22.2 82.7735 21.496C83.1575 20.728 83.7975 19.864 84.6935 18.904C85.5895 17.944 86.8375 17.112 88.4375 16.408C90.0375 15.64 92.0535 15.256 94.4855 15.256C100.374 15.256 104.438 17.08 106.678 20.728C108.918 24.312 110.038 29.4 110.038 35.992C110.038 40.088 109.558 43.64 108.598 46.648C107.702 49.656 106.134 51.96 103.894 53.56C101.654 55.16 98.5175 55.96 94.4855 55.96ZM89.4935 44.92C91.7975 44.92 93.4615 44.504 94.4855 43.672C95.5735 42.776 96.2455 41.656 96.5015 40.312C96.8215 38.904 96.9815 37.432 96.9815 35.896C96.9815 34.36 96.8215 32.92 96.5015 31.576C96.2455 30.168 95.5735 29.048 94.4855 28.216C93.4615 27.384 91.7975 26.968 89.4935 26.968C87.2535 26.968 85.5895 27.384 84.5015 28.216C83.4135 29.048 82.7095 30.168 82.3895 31.576C82.1335 32.92 82.0055 34.36 82.0055 35.896C82.0055 37.432 82.1335 38.904 82.3895 40.312C82.7095 41.656 83.4135 42.776 84.5015 43.672C85.5895 44.504 87.2535 44.92 89.4935 44.92ZM136.216 55.96C131.416 55.96 127.544 55 124.6 53.08C121.656 51.16 119.48 48.696 118.072 45.688C116.728 42.616 115.992 39.416 115.864 36.088C115.736 31.736 116.504 27.992 118.168 24.856C119.832 21.656 122.168 19.224 125.176 17.56C128.248 15.832 131.768 14.968 135.736 14.968C139.512 14.968 142.872 15.768 145.816 17.368C148.824 18.904 151.16 21.112 152.824 23.992C154.552 26.872 155.416 30.328 155.416 34.36V36.856H128.536C128.536 39.672 129.208 41.72 130.552 43C131.96 44.28 133.752 44.92 135.928 44.92C137.784 44.92 139.256 44.504 140.344 43.672C141.496 42.776 142.168 41.656 142.36 40.312H155.32C155.128 43.128 154.296 45.752 152.824 48.184C151.352 50.552 149.24 52.44 146.488 53.848C143.736 55.256 140.312 55.96 136.216 55.96ZM128.728 31.48H141.976C141.976 31.48 141.944 31.192 141.88 30.616C141.88 30.04 141.688 29.368 141.304 28.6C140.92 27.832 140.28 27.16 139.384 26.584C138.488 26.008 137.176 25.72 135.448 25.72C133.72 25.72 132.376 26.008 131.416 26.584C130.456 27.16 129.784 27.832 129.4 28.6C129.08 29.368 128.888 30.04 128.824 30.616C128.76 31.192 128.728 31.48 128.728 31.48Z" fill="#212121"/>
</svg>
